<svg width="340" height="302" viewBox="0 0 340 302" fill="none" xmlns="http://www.w3.org/2000/svg">
<path d="M20 121L32 133" stroke="#DDDDDE"/>
<path d="M20 111.769L32 123.769" stroke="#00FF00"/>
<path d="M20 102.538L32 114.538" stroke="#DDDDDE"/>
<path d="M20 93.3077L32 105.308" stroke="#00FF00"/>
<path d="M20 84.0769L32 96.0769" stroke="#DDDDDE"/>
<path d="M20 74.8462L32 86.8462" stroke="#DDDDDE"/>
<path d="M20 65.6154L32 77.6154" stroke="#DDDDDE"/>
<path d="M20 56.3846L32 68.3846" stroke="#DDDDDE"/>
<path d="M20 47.1538L32 59.1538" stroke="#DDDDDE"/>
<path d="M20 37.9231L32 49.9231" stroke="#DDDDDE"/>
<path d="M32 40.6923L20 28.6923H0" stroke="#00FF00"/>
<path d="M20 19.4615L32 31.4615" stroke="#DDDDDE"/>
<path d="M32 22.2307L20 10.2307H0" stroke="#00FF00"/>
<path d="M20 1L32 13" stroke="#DDDDDE"/>
<path d="M320 181L308 169" stroke="#DDDDDE"/>
<path d="M320 190.231L308 178.231" stroke="#00FF00"/>
<path d="M320 199.462L308 187.462" stroke="#DDDDDE"/>
<path d="M320 208.692L308 196.692" stroke="#00FF00"/>
<path d="M320 217.923L308 205.923" stroke="#DDDDDE"/>
<path d="M320 227.154L308 215.154" stroke="#DDDDDE"/>
<path d="M320 236.385L308 224.385" stroke="#DDDDDE"/>
<path d="M320 245.615L308 233.615" stroke="#DDDDDE"/>
<path d="M320 254.846L308 242.846" stroke="#DDDDDE"/>
<path d="M320 264.077L308 252.077" stroke="#DDDDDE"/>
<path d="M308 261.308L320 273.308H340" stroke="#00FF00"/>
<path d="M320 282.538L308 270.538" stroke="#DDDDDE"/>
<path d="M308 279.769L320 291.769H340" stroke="#00FF00"/>
<path d="M320 301L308 289" stroke="#DDDDDE"/>
</svg>
