<svg width="30" height="30" viewBox="0 0 30 30" fill="none" xmlns="http://www.w3.org/2000/svg">
<path d="M30 28.6787C29.9998 27.6198 29.3701 26.6677 28.3958 26.2532L20.9222 23.0735V21.2855C21.6123 20.2672 22.0463 19.0621 22.1324 17.7634H23.0303C24.8071 17.7634 26.2529 16.3176 26.2529 14.5407V11.9326C26.2529 10.4149 25.1978 9.13978 23.7831 8.79966C23.719 6.21167 23.1335 4.24487 21.9987 2.79833C20.5418 0.941398 18.1873 0 15.0001 0C11.8129 0 9.45839 0.941398 8.00154 2.79856C6.86651 4.24487 6.28125 6.21167 6.21716 8.79966C4.80221 9.13978 3.74728 10.4149 3.74728 11.9326V14.5407C3.74728 16.3176 5.19314 17.7634 6.96996 17.7634H7.86787C7.95393 19.0621 8.3879 20.2672 9.07798 21.2855V23.0735L1.60447 26.2532C0.630117 26.6677 0.000228884 27.6201 0.000228884 28.6789L0 29.1209C0 29.3541 0.092469 29.5777 0.257494 29.7425C0.42229 29.9073 0.645681 30 0.878913 30H29.1213C29.3545 30 29.5782 29.9073 29.743 29.7425C29.9078 29.5775 30.0002 29.3539 30.0002 29.1209L30 28.6787ZM19.1653 23.6901C19.166 23.7112 19.2152 25.8444 17.9552 27.1566C17.2633 27.8769 16.269 28.2419 15.0001 28.2419C13.7358 28.2419 12.744 27.8794 12.0526 27.1644C10.7774 25.8453 10.8344 23.7087 10.8349 23.6901C10.8353 23.6798 10.8356 23.6695 10.8356 23.6592C10.8356 23.6556 10.8358 23.6519 10.8358 23.648V23.0928C12.0091 23.9369 13.4476 24.4345 15.0001 24.4345C16.5526 24.4345 17.9912 23.9366 19.1644 23.0928V23.6483C19.1644 23.6517 19.1647 23.6553 19.1647 23.659C19.1647 23.6693 19.1649 23.6796 19.1653 23.6901ZM20.3935 11.4314C20.3924 11.449 20.3908 11.4666 20.3908 11.4847V16.416L18.7215 17.529C18.1905 17.8831 17.5723 18.0704 16.9337 18.0704H15.4471C14.9619 18.0704 14.5682 18.4638 14.5682 18.9493C14.5682 19.4347 14.9619 19.8282 15.4471 19.8282H16.9337C17.9204 19.8282 18.876 19.5389 19.6968 18.9914L20.2173 18.6444C19.6137 20.9614 17.5034 22.6769 15.0001 22.6769C12.0276 22.6769 9.60945 20.2585 9.60945 17.2862V11.4847C9.60945 11.4664 9.60785 11.4488 9.6067 11.4309V10.2286C9.60785 10.2107 9.60945 10.1931 9.60945 10.1748C9.60945 8.66279 9.97543 7.66394 10.6973 7.2064C11.8733 6.4607 13.9301 7.14643 14.622 7.47305C14.86 7.58658 15.1381 7.58635 15.3766 7.47374C16.0701 7.14666 18.1267 6.46093 19.3029 7.2064C20.0248 7.66394 20.3908 8.66279 20.3908 10.1748C20.3908 10.1929 20.3924 10.2105 20.3935 10.2281V11.4314ZM24.4951 11.9326V14.5407C24.4951 15.3485 23.838 16.0056 23.0303 16.0056H22.1514V10.4678H23.0303C23.838 10.4678 24.4951 11.1249 24.4951 11.9326ZM15.0001 1.75783C19.6545 1.75783 21.8403 3.88507 22.0191 8.63189C21.7732 7.28788 21.1775 6.31078 20.2381 5.71797C18.4196 4.57012 15.9404 5.35496 15.0001 5.72484C14.0599 5.35496 11.5806 4.57012 9.76211 5.71797C8.82278 6.31078 8.22699 7.28788 7.98117 8.63189C8.15993 3.88507 10.3458 1.75783 15.0001 1.75783ZM7.84888 16.0056H6.96996C6.16223 16.0056 5.50511 15.3485 5.50511 14.5407V11.9326C5.50511 11.1249 6.16223 10.4678 6.96996 10.4678H7.84888V16.0056ZM2.29273 27.8707L9.17869 24.941C9.33296 25.8947 9.71611 27.1925 10.6554 28.2422H1.8741C1.96725 28.0794 2.11237 27.9474 2.29273 27.8707ZM19.3448 28.2422C20.2841 27.1925 20.6673 25.8947 20.8215 24.941L27.7075 27.8707C27.8879 27.9474 28.0327 28.0794 28.1261 28.2422H19.3448Z" fill="#ffffff"/>
</svg>
