<svg width="118" height="32" viewBox="0 0 118 32" fill="none" xmlns="http://www.w3.org/2000/svg" style="background: #3399cc;" >
<path d="M5 31.04C3.42667 31.04 2.26667 30.5467 1.52 29.56C0.773333 28.5467 0.4 27.0533 0.4 25.08C0.4 23.08 1.24 17.44 2.92 8.16L0.8 3.88C3.81333 1.93333 6.56 0.96 9.04 0.96C10.6133 0.96 11.5867 1.70667 11.96 3.2C14.9733 3.12 18.7333 2.44 23.24 1.16C23.4533 2.04 23.56 2.90667 23.56 3.76C23.56 5.92 22.84 7.54666 21.4 8.64C19.9867 9.73333 18.16 10.28 15.92 10.28C14.4 10.28 12.9067 9.96 11.44 9.32C11.2267 10.52 10.8533 12.48 10.32 15.2C11.3067 15.3867 12.1467 15.48 12.84 15.48C13.9333 15.2667 15.1333 14.96 16.44 14.56C16.5733 15.0133 16.64 15.76 16.64 16.8C16.64 17.8133 16.2267 18.6267 15.4 19.24C14.5733 19.8533 13.64 20.16 12.6 20.16C11.5867 20.16 10.5467 20.04 9.48 19.8C9.18667 21.48 9.04 23.0667 9.04 24.56H15.52C17.5467 24.2667 19.5867 23.7467 21.64 23C21.8 23.48 21.88 24.1333 21.88 24.96C21.88 26.5333 21.4133 27.9333 20.48 29.16C19.5733 30.3867 18.3067 31 16.68 31C15.8267 31 14.5733 30.8267 12.92 30.48C11.2933 30.16 10.08 29.96 9.28 29.88C8 30.6533 6.57333 31.04 5 31.04ZM24.5656 20.48C24.5656 16.2133 26.0323 12.7333 28.9656 10.04C31.899 7.34667 35.5923 6 40.0456 6C42.339 6 44.1523 6.44 45.4856 7.32C46.819 8.17333 47.4856 9.25333 47.4856 10.56C47.4856 11.8667 47.0323 12.8667 46.1256 13.56C45.2456 14.2533 44.2723 14.6 43.2056 14.6C42.1656 14.6 41.2056 14.32 40.3256 13.76C39.4723 13.2 38.8056 12.3867 38.3256 11.32C36.6456 12.0133 35.3123 13.24 34.3256 15C33.3656 16.76 32.8856 18.52 32.8856 20.28C32.8856 22.04 33.2323 23.4667 33.9256 24.56C34.619 25.6533 35.5256 26.2 36.6456 26.2C37.7656 26.2 38.6723 25.8267 39.3656 25.08C40.0856 24.3333 40.4456 23.2267 40.4456 21.76C44.339 21.76 46.2856 22.68 46.2856 24.52C46.2856 26.0933 45.299 27.5733 43.3256 28.96C41.3523 30.32 38.7523 31 35.5256 31C32.299 31 29.659 30.04 27.6056 28.12C25.579 26.1733 24.5656 23.6267 24.5656 20.48ZM65.3534 25.08L64.9534 24.88C64.2334 26.8 63.1934 28.3067 61.8334 29.4C60.5001 30.4667 59.0068 31 57.3534 31C55.0868 31 53.2734 30.1467 51.9134 28.44C50.5534 26.7333 49.8734 24.4533 49.8734 21.6C49.8734 17.1733 51.3534 13.4667 54.3134 10.48C57.3001 7.49333 61.0068 6 65.4334 6C66.5801 6 67.6334 6.10667 68.5934 6.32C68.7534 7.06667 68.8468 7.72 68.8734 8.28C70.2068 7.42666 71.5801 7 72.9934 7C74.9401 7 75.9134 8.05333 75.9134 10.16C75.9134 10.9067 75.4868 13.16 74.6334 16.92C73.8068 20.68 73.3934 23.4667 73.3934 25.28C73.3934 27.0933 73.8068 28.3467 74.6334 29.04C73.1401 30.3467 71.5801 31 69.9534 31C68.3534 31 67.1801 30.52 66.4334 29.56C65.7134 28.6 65.3534 27.1067 65.3534 25.08ZM57.3934 19.64C57.3934 20.9467 57.6601 21.96 58.1934 22.68C58.7534 23.3733 59.5401 23.72 60.5534 23.72C61.5668 23.72 62.5668 23.3467 63.5534 22.6C64.5401 21.8533 65.3668 20.8267 66.0334 19.52C66.2734 16.8267 66.7934 13.64 67.5934 9.96C64.9001 9.96 62.5268 10.9333 60.4734 12.88C58.4201 14.8267 57.3934 17.08 57.3934 19.64ZM79.9266 26.04C79.9266 24.9733 80.1932 22.9067 80.7266 19.84C81.2866 16.7733 81.8599 13.9733 82.4466 11.44L80.3666 8.24C83.6999 6.74667 86.0332 6 87.3666 6C88.7266 6 89.4066 6.85333 89.4066 8.56C89.4066 9.49333 88.9666 11.44 88.0866 14.4L88.4866 14.6C90.4066 8.86667 92.7932 6 95.6466 6C96.9532 6 97.9532 6.4 98.6466 7.2C99.3399 8 99.6866 8.89333 99.6866 9.88C99.6866 11.3467 99.1399 12.6 98.0466 13.64C96.9532 14.68 95.3132 15.2 93.1266 15.2C89.8199 15.2 88.1666 18.6 88.1666 25.4C88.1666 27.0533 88.4466 28.2667 89.0066 29.04C87.3532 30.3467 85.8332 31 84.4466 31C81.4332 31 79.9266 29.3467 79.9266 26.04ZM101.578 15.56C101.392 14.8133 101.298 14.12 101.298 13.48C101.298 12.1733 101.685 11.1867 102.458 10.52C103.232 9.85333 104.232 9.52 105.458 9.52C105.458 8.13333 105.098 6.62667 104.378 5C105.685 4.04 106.872 3.32 107.938 2.84C109.032 2.33333 110.178 2.08 111.378 2.08C112.578 2.08 113.405 2.30667 113.858 2.76C114.338 3.18667 114.578 3.85333 114.578 4.76C114.578 5.66667 114.392 7.08 114.018 9C115.085 8.84 116.165 8.61333 117.258 8.32C117.445 8.88 117.538 9.6 117.538 10.48C117.538 11.36 117.192 12.1867 116.498 12.96C115.832 13.7067 114.845 14.08 113.538 14.08H112.938C111.978 18.4267 111.498 21.7733 111.498 24.12C111.498 26.4667 111.912 28.1067 112.738 29.04C111.245 30.3467 109.658 31 107.978 31C106.298 31 105.085 30.5067 104.338 29.52C103.618 28.5067 103.258 26.9467 103.258 24.84C103.258 23.56 103.725 20.2 104.658 14.76C103.592 14.9467 102.565 15.2133 101.578 15.56Z" fill="#00FF00"/>
</svg>